<svg width="654" height="495" fill="none" xmlns="http://www.w3.org/2000/svg"><g clip-path="url(#clip0)"><path d="M210.631 347.426a.843.843 0 01-.864-.864v-3.087c0-.494.37-.864.864-.864s.865.37.865.864v3.087c0 .494-.432.864-.865.864zM255.95 391.564h-5.989a.843.843 0 01-.864-.864c0-.494.37-.864.864-.864h5.989c.494 0 .864.37.864.864s-.37.864-.864.864zm-12.04 0h-5.989a.843.843 0 01-.864-.864c0-.494.37-.864.864-.864h5.989c.494 0 .865.37.865.864a.844.844 0 01-.865.864zm-12.039 0h-5.989a.844.844 0 01-.865-.864c0-.494.371-.864.865-.864h5.989c.494 0 .864.37.864.864s-.37.864-.864.864zm30.068-.247c-.432 0-.803-.308-.864-.679-.124-.493.185-.926.679-1.049 1.852-.37 3.519-1.173 5.001-2.408a.881.881 0 011.235.124.88.88 0 01-.124 1.234c-1.667 1.359-3.643 2.346-5.742 2.778h-.185zm-42.046-.123h-.247a13.837 13.837 0 01-5.619-3.025c-.37-.309-.37-.864-.061-1.235.308-.37.864-.37 1.234-.061 1.359 1.234 3.087 2.16 4.878 2.654a.846.846 0 01.617 1.05c-.061.37-.432.617-.802.617zm50.937-7.223c-.124 0-.247 0-.309-.061a.913.913 0 01-.494-1.173c.556-1.42.865-2.902.865-4.383v-1.173c0-.494.37-.864.864-.864s.864.37.864.864v1.173c0 1.79-.37 3.457-.988 5.062-.123.37-.432.555-.802.555zm-59.519-.555a.878.878 0 01-.803-.556c-.494-1.42-.803-2.963-.803-4.506v-1.729c0-.494.371-.864.865-.864s.864.37.864.864v1.729c0 1.358.247 2.654.679 3.889.185.432-.061.926-.555 1.111 0 .062-.124.062-.247.062zm60.507-11.359a.844.844 0 01-.865-.864v-5.988c0-.494.371-.864.865-.864s.864.37.864.864v5.988c0 .494-.37.864-.864.864zm-61.187-.555a.845.845 0 01-.864-.865v-5.988c0-.494.371-.864.864-.864.494 0 .865.37.865.864v5.988c0 .432-.432.865-.865.865zm61.187-11.421a.844.844 0 01-.865-.864v-5.988c0-.494.371-.864.865-.864s.864.37.864.864v5.988c0 .432-.37.864-.864.864zm-61.187-.617a.845.845 0 01-.864-.864v-5.988c0-.494.371-.865.864-.865.494 0 .865.371.865.865v5.988c0 .493-.432.864-.865.864zm61.187-11.421a.844.844 0 01-.865-.864v-5.988c0-.494.371-.864.865-.864s.864.37.864.864v5.988c0 .432-.37.864-.864.864zm0-12.037a.845.845 0 01-.865-.864v-5.988c0-.494.371-.865.865-.865s.864.371.864.865v5.988c0 .493-.37.864-.864.864zm0-12.038a.844.844 0 01-.865-.864v-5.988c0-.494.371-.864.865-.864s.864.37.864.864v5.988c0 .494-.37.864-.864.864zm0-12.038a.844.844 0 01-.865-.864v-5.988c0-.494.371-.864.865-.864s.864.37.864.864v5.988c0 .494-.37.864-.864.864zM271.818 299.893a.845.845 0 01-.865-.865v-3.086c0-.494.371-.864.865-.864h3.087c.494 0 .864.37.864.864s-.37.864-.864.864h-2.223v2.222c0 .494-.37.865-.864.865zM370.975 296.806h-5.989a.843.843 0 01-.864-.864c0-.494.37-.864.864-.864h5.989c.494 0 .864.37.864.864s-.37.864-.864.864zm-11.978 0h-5.989a.843.843 0 01-.864-.864c0-.494.37-.864.864-.864h5.989c.494 0 .865.37.865.864s-.433.864-.865.864zm-12.04 0h-5.988a.844.844 0 01-.865-.864c0-.494.371-.864.865-.864h5.988c.494 0 .865.37.865.864a.844.844 0 01-.865.864zm-11.977 0h-5.989a.844.844 0 01-.865-.864c0-.494.371-.864.865-.864h5.989c.494 0 .864.37.864.864s-.432.864-.864.864zm-12.04 0h-5.989a.843.843 0 01-.864-.864c0-.494.37-.864.864-.864h5.989c.494 0 .864.37.864.864s-.37.864-.864.864zm-12.04 0h-5.989a.843.843 0 01-.864-.864c0-.494.37-.864.864-.864h5.989c.494 0 .865.37.865.864a.844.844 0 01-.865.864zm-11.978 0h-5.989a.843.843 0 01-.864-.864c0-.494.37-.864.864-.864h5.989c.494 0 .865.37.865.864a.844.844 0 01-.865.864zm-12.039 0h-5.989a.844.844 0 01-.865-.864c0-.494.371-.864.865-.864h5.989c.494 0 .864.37.864.864s-.37.864-.864.864zm90.081-.247c-.432 0-.803-.308-.864-.679-.124-.494.185-.926.679-1.049 1.852-.371 3.581-1.173 5.001-2.346a.881.881 0 011.235.123.881.881 0 01-.124 1.235 13.348 13.348 0 01-5.742 2.716h-.185zm8.953-7.222c-.124 0-.247 0-.371-.062-.432-.185-.679-.679-.432-1.173a11.33 11.33 0 00.926-4.506v-1.05c0-.494.371-.864.865-.864.493 0 .864.37.864.864v1.05c0 1.79-.371 3.518-1.05 5.185a.878.878 0 01-.802.556zm.988-11.915a.844.844 0 01-.865-.864v-5.988c0-.494.371-.864.865-.864.493 0 .864.37.864.864v5.988a.844.844 0 01-.864.864zm0-11.976a.844.844 0 01-.865-.864v-5.988c0-.494.371-.864.865-.864.493 0 .864.37.864.864v5.988c0 .432-.371.864-.864.864zm0-12.037a.845.845 0 01-.865-.864v-5.988c0-.494.371-.865.865-.865.493 0 .864.371.864.865v5.988a.845.845 0 01-.864.864zm0-12.038a.844.844 0 01-.865-.864v-5.988c0-.494.371-.864.865-.864.493 0 .864.37.864.864v5.988a.844.844 0 01-.864.864zm0-11.976a.844.844 0 01-.865-.864v-5.988c0-.494.371-.864.865-.864.493 0 .864.37.864.864v5.988a.844.844 0 01-.864.864zm0-12.038a.844.844 0 01-.865-.864v-5.988c0-.494.371-.864.865-.864.493 0 .864.37.864.864v5.988a.844.844 0 01-.864.864zM386.905 205.382a.845.845 0 01-.865-.865v-3.086c0-.494.371-.865.865-.865h3.087c.494 0 .864.371.864.865s-.37.864-.864.864h-2.223v2.222c0 .432-.37.865-.864.865zM465.934 202.295h-6.297a.844.844 0 01-.865-.864c0-.494.371-.865.865-.865h6.297c.494 0 .865.371.865.865a.844.844 0 01-.865.864zm-12.657 0h-6.298a.844.844 0 01-.864-.864c0-.494.371-.865.864-.865h6.298c.494 0 .864.371.864.865s-.37.864-.864.864zm-12.657 0h-6.298a.843.843 0 01-.864-.864c0-.494.37-.865.864-.865h6.298c.494 0 .864.371.864.865s-.37.864-.864.864zm-12.657 0h-6.298a.843.843 0 01-.864-.864c0-.494.37-.865.864-.865h6.298c.494 0 .864.371.864.865s-.37.864-.864.864zm-12.657 0h-6.298a.843.843 0 01-.864-.864c0-.494.37-.865.864-.865h6.298c.494 0 .864.371.864.865s-.37.864-.864.864zm-12.657 0h-6.298a.843.843 0 01-.864-.864c0-.494.37-.865.864-.865h6.298c.494 0 .864.371.864.865s-.37.864-.864.864zM475.319 205.382a.844.844 0 01-.864-.865v-2.222h-2.223a.844.844 0 01-.865-.864c0-.494.371-.865.865-.865h3.087c.494 0 .864.371.864.865v3.086c0 .432-.37.865-.864.865zM614.053 342.858h-6.174a.844.844 0 01-.865-.864c0-.494.371-.864.865-.864h6.174c.494 0 .864.37.864.864s-.432.864-.864.864zm-12.348 0h-6.175a.843.843 0 01-.864-.864c0-.494.37-.864.864-.864h6.175c.494 0 .864.37.864.864s-.37.864-.864.864zm-12.287 0h-6.174a.844.844 0 01-.865-.864c0-.494.371-.864.865-.864h6.174c.494 0 .864.37.864.864s-.432.864-.864.864zm-12.348 0h-6.175a.844.844 0 01-.864-.864c0-.494.371-.864.864-.864h6.175c.494 0 .864.37.864.864s-.37.864-.864.864zm-12.287 0h-6.174a.844.844 0 01-.865-.864c0-.494.371-.864.865-.864h6.174c.494 0 .864.37.864.864s-.37.864-.864.864zm-12.348 0h-6.175a.843.843 0 01-.864-.864c0-.494.37-.864.864-.864h6.175c.494 0 .864.37.864.864s-.37.864-.864.864zm-12.287 0h-6.174a.844.844 0 01-.865-.864c0-.494.371-.864.865-.864h6.174c.494 0 .864.37.864.864s-.37.864-.864.864zm-12.348 0h-6.175a.843.843 0 01-.864-.864c0-.494.37-.864.864-.864h6.175c.494 0 .864.37.864.864s-.37.864-.864.864zm-12.287 0h-6.174a.844.844 0 01-.865-.864c0-.494.371-.864.865-.864h6.174c.494 0 .864.37.864.864s-.37.864-.864.864zm-12.348 0h-6.175a.843.843 0 01-.864-.864c0-.494.37-.864.864-.864h6.175c.494 0 .864.37.864.864s-.37.864-.864.864zm-12.287 0h-3.211c-1.049 0-2.099-.123-3.148-.37a.848.848 0 01-.618-1.05c.124-.432.618-.741 1.05-.617.864.247 1.79.309 2.716.309h3.211c.494 0 .864.37.864.864s-.37.864-.864.864zm129.287 0c-.432 0-.864-.37-.864-.802 0-.494.309-.926.803-.926a11.743 11.743 0 005.371-1.729c.432-.247.926-.123 1.235.247.247.432.124.926-.247 1.235-1.852 1.111-4.013 1.852-6.298 1.975.062 0 .062 0 0 0zm-140.771-3.21a.885.885 0 01-.617-.247c-1.606-1.482-2.902-3.395-3.581-5.432-.186-.432.061-.926.555-1.112.432-.185.926.062 1.112.556.617 1.79 1.728 3.457 3.148 4.753.371.309.371.865.062 1.235a1.151 1.151 0 01-.679.247zm150.774-3.087c-.124 0-.309-.061-.433-.123-.432-.247-.555-.741-.308-1.173.926-1.667 1.42-3.58 1.482-5.494 0-.494.37-.864.864-.864s.864.432.864.864c0 2.222-.617 4.383-1.667 6.297-.185.308-.494.493-.802.493zm-154.849-8.086a.844.844 0 01-.864-.865v-6.173c0-.494.37-.864.864-.864s.864.37.864.864v6.173c0 .494-.37.865-.864.865zm156.392-3.951a.844.844 0 01-.864-.865v-6.173c0-.494.37-.864.864-.864s.865.37.865.864v6.173c.061.433-.371.865-.865.865zm-156.392-8.334a.843.843 0 01-.864-.864v-6.174c0-.493.37-.864.864-.864s.864.371.864.864v6.174c0 .432-.37.864-.864.864zm156.392-4.013a.843.843 0 01-.864-.864v-6.173c0-.494.37-.864.864-.864s.865.37.865.864v6.173c.061.494-.371.864-.865.864zm-156.392-8.333a.844.844 0 01-.864-.865v-6.173c0-.494.37-.864.864-.864s.864.37.864.864v6.173c0 .494-.37.865-.864.865zm156.392-3.951a.844.844 0 01-.864-.864v-6.174c0-.494.37-.864.864-.864s.865.37.865.864v6.174c.061.432-.371.864-.865.864zm-156.392-8.334a.843.843 0 01-.864-.864v-6.173c0-.494.37-.865.864-.865s.864.371.864.865v6.173c0 .494-.37.864-.864.864zm156.392-4.013a.843.843 0 01-.864-.864v-6.173c0-.494.37-.864.864-.864s.865.37.865.864v6.173c.061.494-.371.864-.865.864zm-156.392-8.333a.844.844 0 01-.864-.865v-6.173c0-.494.37-.864.864-.864s.864.37.864.864v6.173c0 .494-.37.865-.864.865zm156.392-3.951a.844.844 0 01-.864-.864v-6.174c0-.493.37-.864.864-.864s.865.371.865.864v6.174c.061.493-.371.864-.865.864zm-156.392-8.334a.843.843 0 01-.864-.864v-6.173c0-.494.37-.865.864-.865s.864.371.864.865v6.173c0 .494-.37.864-.864.864zm156.392-4.013a.843.843 0 01-.864-.864v-6.173c0-.494.37-.864.864-.864s.865.37.865.864v6.173c.061.494-.371.864-.865.864zm-156.392-8.333a.844.844 0 01-.864-.865v-6.173c0-.494.37-.864.864-.864s.864.37.864.864v6.173c0 .494-.37.865-.864.865zm156.392-3.951a.844.844 0 01-.864-.864v-6.174c0-.493.37-.864.864-.864s.865.371.865.864v6.174c.061.493-.371.864-.865.864zm-156.392-8.334a.843.843 0 01-.864-.864v-6.173c0-.494.37-.865.864-.865s.864.371.864.865v6.173c0 .494-.37.864-.864.864zm156.392-4.013a.843.843 0 01-.864-.864v-6.173c0-.494.37-.864.864-.864s.865.37.865.864v6.173c.061.494-.371.864-.865.864zm-156.392-8.272a.843.843 0 01-.864-.864v-6.173c0-.494.37-.864.864-.864s.864.37.864.864v6.173c0 .432-.37.864-.864.864zM631.711 226a.844.844 0 01-.864-.864v-6.174c0-.493.37-.864.864-.864s.865.371.865.864v6.174c.061.493-.371.864-.865.864zm-156.392-8.334a.843.843 0 01-.864-.864v-6.173c0-.494.37-.865.864-.865s.864.371.864.865v6.173c0 .494-.37.864-.864.864zm156.392-3.951a.843.843 0 01-.864-.864v-6.173c0-.494.37-.864.864-.864s.865.37.865.864v6.173c.061.432-.371.864-.865.864zm0-12.346a.843.843 0 01-.864-.864v-6.174c0-.493.37-.864.864-.864s.865.371.865.864v6.174c.061.494-.371.864-.865.864zm0-12.285a.843.843 0 01-.864-.864v-6.173c0-.494.37-.864.864-.864s.865.37.865.864v6.173c.061.432-.371.864-.865.864zm0-12.346a.843.843 0 01-.864-.864v-6.173c0-.494.37-.865.864-.865s.865.371.865.865v6.173c.061.494-.371.864-.865.864zm0-12.285a.843.843 0 01-.864-.864v-6.173c0-.494.37-.864.864-.864s.865.37.865.864v6.173c.061.432-.371.864-.865.864zm0-12.346a.843.843 0 01-.864-.864v-6.173c0-.494.37-.865.864-.865s.865.371.865.865v6.173c.061.494-.371.864-.865.864zm0-12.285a.843.843 0 01-.864-.864v-6.173c0-.494.37-.864.864-.864s.865.37.865.864v6.173c.061.432-.371.864-.865.864zM631.711 127.476a.843.843 0 01-.864-.864v-3.087c0-.494.37-.864.864-.864s.865.37.865.864v3.087c.061.494-.371.864-.865.864z" fill="#3384FF"/><path d="M589.456 9.63H471.144a7 7 0 00-7 7V232.52a7 7 0 007 7h118.312a7 7 0 007-7V16.63a7 7 0 00-7-7z" fill="#5597FF"/><path fill-rule="evenodd" clip-rule="evenodd" d="M578.243.864H465.07c-5.433 0-9.879 4.445-9.879 9.877v66.424L412.96 89.017l42.231 11.853v119.512c0 5.433 4.446 9.877 9.879 9.877h113.173c5.433 0 9.878-4.444 9.878-9.877V10.742c0-5.433-4.445-9.878-9.878-9.878z" fill="#fff"/><path fill-rule="evenodd" clip-rule="evenodd" d="M564.66 67.72c0-.062 0-.062-.062-.124v-.123-.124-.123-.124-.061-.124a1.664 1.664 0 01-.309-.74c-.062-.618.062-1.853-.062-3.025-.185-1.173-.741-2.285-2.099-2.778-1.358-.494-3.581-.433-7.162-1.544-3.581-1.11-8.582-3.395-13.336-4.568-4.754-1.234-9.385-1.358-13.892-1.173-4.507.186-8.953.68-13.028 2.037-4.075 1.358-7.779 3.52-10.558 4.754-2.716 1.173-4.507 1.358-7.779 2.099-3.272.74-8.088 1.975-10.743 3.148-2.593 1.173-3.149 2.284-3.396 3.95v.063c-.247 1.666-.247 3.95.864 5.308.865 1.112 2.47 1.729 4.878 2.1-.37-.988-.617-2.038-.617-3.149v-.494-.123-.309-.185c0-.124 0-.185.061-.309 0-.061 0-.123.062-.185 0-.123.062-.185.062-.309 0-.061 0-.123.062-.185 0-.123.061-.185.061-.308 0-.062 0-.124.062-.124.062-.123.062-.247.124-.37v-.062c.061-.124.123-.309.185-.432 0-.062.062-.062.062-.124.061-.123.061-.185.123-.308 1.42-2.84 4.322-4.815 7.656-4.815 3.334 0 6.236 1.913 7.656 4.753.062.062.062.185.123.247 0 .062.062.123.062.185.062.124.062.185.124.309 0 .061.061.061.061.123.062.124.124.309.124.432v.062c.062.124.062.247.123.37 0 .062 0 .124.062.186 0 .123.062.185.062.308 0 .062 0 .124.062.186 0 .123.061.185.061.308V73.4a8.44 8.44 0 01-.864 3.766c1.791 0 3.705-.062 5.927-.062 8.829-.185 21.425-.556 30.686-.988-.309-.864-.432-1.79-.432-2.716v-.37-.124-.37c0-.124 0-.247.062-.37v-.062c0-.124.061-.185.061-.309v-.123c0-.124.062-.247.062-.37.062-.124.062-.248.124-.371 0-.062-.001-.062.061-.124 0-.123.062-.185.124-.308v-.062c.061-.124.061-.247.123-.37 0 0 0-.062.062-.062.062-.062.062-.185.123-.247 0-.062 0-.062.062-.124.062-.123.124-.246.185-.308.062-.124.124-.186.186-.309l.061-.062c1.482-2.469 4.199-4.074 7.286-4.074a8.656 8.656 0 016.853 3.395s0 .062.062.062c.062.062.123.185.185.247 0 .062.062.062.062.123.062.062.123.124.123.247 0 .062.062.062.062.124.062.061.062.185.124.247 0 .061.061.061.061.123.124.247.247.432.309.68 0 .061 0 .061.062.123.062.061.062.185.123.247 0 .061 0 .061.062.123 0 .062.062.185.062.247s0 .062.062.124c0 .123.061.185.061.308v.062c.062.123.062.247.062.37v.062c0 .124.062.185.062.309v.123c0 .062 0 .185.062.247V73.399a7.23 7.23 0 01-.186 1.667 41.753 41.753 0 002.408-.37c2.161-.371 3.705-.741 4.631-1.297.926-.556 1.173-1.296 1.296-2.47 0-.925-.061-2.407-.246-3.21z" fill="#DBB7F3"/><path d="M547.989 80.436a6.914 6.914 0 10-6.915-6.914 6.914 6.914 0 006.915 6.914zM497.523 80.128a6.914 6.914 0 10-4.008-13.235 6.915 6.915 0 104.008 13.235z" fill="#DBB7F3"/><path d="M294.786 241.248a.845.845 0 01-.865-.865v-37.286c0-.493.371-.864.865-.864s.864.371.864.864v37.286c0 .432-.37.865-.864.865z" fill="#3383FF"/><path d="M369.717 247.791H235.043a7 7 0 00-7 7v89.895a7 7 0 007 7h134.674a7 7 0 007-7v-89.895a7 7 0 00-7-7zM387.314 65.374H198.677a7 7 0 00-7 7V202.95a7 7 0 007 7h188.637a7 7 0 007-7V72.374a7 7 0 00-7-7z" fill="#8BB9FF"/><path fill-rule="evenodd" clip-rule="evenodd" d="M379.804 203.221H191.368c-3.952 0-7.1-3.21-7.1-7.099V65.127c0-3.95 3.21-7.1 7.1-7.1h188.436c3.952 0 7.101 3.21 7.101 7.1v130.995c0 3.889-3.149 7.099-7.101 7.099z" fill="#DDEAFF"/><path fill-rule="evenodd" clip-rule="evenodd" d="M277.622 435.332c-4.136-5.185-4.136-13.457-3.21-19.692.926-6.173 2.717-10.309 12.472-14.692 9.755-4.383 27.475-9.013 39.515-11.668 12.101-2.654 18.522-3.333 28.586-7.716s23.832-12.47 38.836-17.47c15.065-4.939 31.426-6.791 48.035-7.47 16.608-.679 33.464-.185 51.122 4.321 17.597 4.445 35.996 12.902 49.208 16.977 13.213 4.074 21.363 3.704 26.364 5.617 5.063 1.914 7.039 6.05 7.718 10.309.679 4.322 0 8.766.309 11.05.308 2.285 1.667 2.47 2.408 5.309.74 2.84.926 8.272.494 12.408-.433 4.136-1.421 6.914-4.816 9.013-3.396 2.037-9.2 3.395-17.103 4.692-2.531.432-5.248.864-8.891 1.296.433-2.037.618-4.074.618-6.235 0-17.408-14.077-31.483-31.489-31.483-17.411 0-31.488 14.075-31.488 31.483 0 3.519.556 6.914 1.667 10.063-34.143 1.481-80.573 2.963-113.111 3.58-8.088.185-15.312.247-21.795.309a31.15 31.15 0 003.272-13.952c0-17.408-14.077-31.483-31.488-31.483s-31.488 14.075-31.488 31.483c0 4.075.802 7.964 2.161 11.544-8.891-1.296-14.695-3.519-17.906-7.593z" fill="#8F50D9"/><path fill-rule="evenodd" clip-rule="evenodd" d="M507.24 382.86l-2.408-11.976c6.976 2.223 13.336 4.568 19.695 6.976l.988 4.445-18.275.555zM499.09 369.156l2.593 13.828-52.728 1.481 2.285-22.779c3.334 0 6.73.185 10.125.432 12.102.926 24.327 3.396 34.885 6.297.987.185 1.914.494 2.84.741zM436.73 362.242l-2.284 22.655-77.116 2.161c11.422-5.679 22.845-11.42 34.143-15.495 11.299-4.074 22.598-6.543 34.205-8.148 3.643-.494 7.348-.926 11.052-1.173z" fill="#DEEBFF"/><path fill-rule="evenodd" clip-rule="evenodd" d="M542.988 412.491c17.411-1.296 26.117-3.086 34.823-4.876.432.617.864 1.358 1.234 2.654.741 2.84.927 8.272.494 12.408-.432 4.136-1.42 6.914-4.815 9.013-3.396 2.037-9.2 3.395-17.103 4.692-2.531.432-5.248.864-8.891 1.296.432-2.037.618-4.074.618-6.235a31.268 31.268 0 00-6.36-18.952zM491.248 414.529c-3.087 4.876-4.939 10.679-4.939 16.914 0 3.519.556 6.914 1.667 10.062-34.143 1.482-80.573 2.963-113.111 3.581-8.088.185-15.312.247-21.795.308a31.146 31.146 0 003.272-13.951c0-5.185-1.235-10.062-3.457-14.383 16.361-.309 34.39-.741 53.715-1.112 27.969-.493 58.593-.802 84.648-1.419zM293.304 431.443c0 4.074.803 7.963 2.161 11.544-8.891-1.42-14.695-3.581-17.905-7.655-4.137-5.185-4.137-13.457-3.211-19.692 0-.062 0-.185.062-.247 6.051 1.234 13.336 1.79 22.165 2.037-2.037 4.198-3.272 9.013-3.272 14.013z" fill="#7427CA"/><path fill-rule="evenodd" clip-rule="evenodd" d="M289.661 402.306c2.223-1.05 6.051-2.099 8.52-2.037 2.532.061 3.767 1.358 2.1 2.777-1.667 1.42-6.36 3.025-9.2 3.457-2.902.371-3.951-.432-4.137-1.296-.247-.926.494-1.914 2.717-2.901z" fill="#fff"/><path d="M517.427 457c14.049 0 25.438-11.387 25.438-25.433 0-14.047-11.389-25.434-25.438-25.434s-25.438 11.387-25.438 25.434c0 14.046 11.389 25.433 25.438 25.433z" fill="#270D45"/><path fill-rule="evenodd" clip-rule="evenodd" d="M517.427 448.543c-9.323 0-16.979-7.593-16.979-16.977 0-9.321 7.594-16.976 16.979-16.976 9.323 0 16.979 7.593 16.979 16.976 0 9.322-7.594 16.977-16.979 16.977z" fill="#DEEBFF"/><path fill-rule="evenodd" clip-rule="evenodd" d="M517.427 435.517c-2.161 0-3.952-1.79-3.952-3.95 0-2.161 1.791-3.951 3.952-3.951s3.951 1.79 3.951 3.951c0 2.16-1.728 3.95-3.951 3.95z" fill="#270D45"/><path d="M342.098 449.533c9.934-9.932 9.934-26.036 0-35.968-9.934-9.932-26.04-9.932-35.974 0-9.934 9.932-9.934 26.036 0 35.968 9.934 9.932 26.04 9.932 35.974 0z" fill="#270D45"/><path fill-rule="evenodd" clip-rule="evenodd" d="M324.113 448.543c-9.323 0-16.979-7.593-16.979-16.977 0-9.321 7.594-16.976 16.979-16.976 9.323 0 16.979 7.593 16.979 16.976-.062 9.322-7.656 16.977-16.979 16.977z" fill="#DEEBFF"/><path fill-rule="evenodd" clip-rule="evenodd" d="M324.113 435.517c-2.161 0-3.951-1.79-3.951-3.95 0-2.161 1.79-3.951 3.951-3.951s3.952 1.79 3.952 3.951c-.062 2.16-1.791 3.95-3.952 3.95z" fill="#270D45"/><path fill-rule="evenodd" clip-rule="evenodd" d="M419.443 318.536c3.087 6.543 9.199 16.976 15.373 27.409 6.483-10.68 12.966-21.36 15.991-27.903 6.236-13.272-.123-29.631-15.991-29.631-16.794 0-21.733 16.544-15.373 30.125zm15.435-20.063a8.273 8.273 0 11-8.273 8.272c-.062-4.568 3.642-8.272 8.273-8.272z" fill="#7427CA"/><path fill-rule="evenodd" clip-rule="evenodd" d="M424.876 302.053l10.187 10.186c4.94-8.519 9.879-17.1 14.818-25.619-1.111-.617-2.222-1.296-3.334-1.913-4.075 7.099-8.15 14.136-12.225 21.235l-6.791-6.79c-.926.988-1.791 1.975-2.655 2.901z" fill="#FC865F"/><path fill-rule="evenodd" clip-rule="evenodd" d="M191.615 301.066c3.704 7.963 11.237 20.742 18.769 33.458 7.903-13.025 15.806-26.112 19.573-34.076 7.594-16.173-.124-36.174-19.573-36.174-20.498.061-26.549 20.186-18.769 36.792zm19.016-26.977c6.916 0 12.534 5.617 12.534 12.531 0 6.914-5.618 12.532-12.534 12.532-6.915 0-12.533-5.618-12.533-12.532s5.618-12.531 12.533-12.531z" fill="#8BB9FF"/><path fill-rule="evenodd" clip-rule="evenodd" d="M386.905 89.264V76.362l-72.732 55.744-64.768-84.573-8.15 6.174 75.14 98.03-39.021 29.939-92.057-120.13-1.049 3.828.37 12.038 23.956 31.359-24.326 18.643v7.161l27.783-21.359 57.235 74.634-19.881 15.186 16.671.185 56.555-43.336 33.156 43.336 12.533-.494-23.709-30.989 42.294-32.471v-7.161l-45.751 35.125-20.745-27.038 66.496-50.929z" fill="#fff"/><path fill-rule="evenodd" clip-rule="evenodd" d="M292.439 57.102l33.959 44.385 39.638-30.742-9.694-12.779-63.903-.864z" fill="#8BB9FF"/><path fill-rule="evenodd" clip-rule="evenodd" d="M249.838 147.045c2.222 4.815 6.791 12.47 11.298 20.125 4.754-7.84 9.509-15.68 11.731-20.495 4.569-9.754-.061-21.792-11.731-21.792-12.348.062-15.991 12.161-11.298 22.162zm11.298-14.754a6.087 6.087 0 016.113 6.112 6.087 6.087 0 01-6.113 6.111 6.086 6.086 0 01-6.112-6.111 6.086 6.086 0 016.112-6.112zM336.585 94.758c2.223 4.815 6.792 12.47 11.299 20.125 4.754-7.84 9.508-15.68 11.731-20.495 4.569-9.754-.062-21.791-11.731-21.791-12.349 0-15.93 12.16-11.299 22.161zm11.299-14.754a6.087 6.087 0 016.112 6.112 6.087 6.087 0 01-6.112 6.111 6.087 6.087 0 01-6.113-6.111c.062-3.395 2.779-6.112 6.113-6.112z" fill="#8F50D9"/><path fill-rule="evenodd" clip-rule="evenodd" d="M225.141 146.057l-21.425 16.73-8.335-11.112-11.113 8.828v35.31a6.654 6.654 0 006.544 6.667l27.722.679 31.304-24.384-24.697-32.718zM612.756 88.153c3.705 7.963 11.237 20.742 18.77 33.459 7.903-13.026 15.806-26.113 19.572-34.076 7.594-16.174-.123-36.175-19.572-36.175-20.498.062-26.549 20.186-18.77 36.792zm18.955-26.977c6.915 0 12.534 5.618 12.534 12.532s-5.619 12.531-12.534 12.531c-6.915 0-12.533-5.617-12.533-12.531.061-6.914 5.618-12.532 12.533-12.532z" fill="#8BB9FF"/><path fill-rule="evenodd" clip-rule="evenodd" d="M569.167 9.63c2.655 0 4.816 2.099 4.816 4.63 0 2.531-2.161 4.63-4.816 4.63s-4.816-2.099-4.816-4.63c0-2.531 2.161-4.63 4.816-4.63z" fill="#FFB726"/><path d="M569.167 19.507c-2.964 0-5.372-2.346-5.372-5.185 0-2.84 2.408-5.186 5.372-5.186 2.963 0 5.371 2.346 5.371 5.186s-2.408 5.185-5.371 5.185zm0-9.321c-2.347 0-4.261 1.852-4.261 4.074 0 2.222 1.914 4.074 4.261 4.074 2.346 0 4.26-1.852 4.26-4.074 0-2.222-1.914-4.074-4.26-4.074z" fill="#FC865F"/><path fill-rule="evenodd" clip-rule="evenodd" d="M362.702 344.278H226.808c-3.396 0-6.174-2.778-6.174-6.173v-91.548c0-3.396 2.778-6.174 6.174-6.174h135.894c3.396 0 6.174 2.778 6.174 6.174v91.548a6.152 6.152 0 01-6.174 6.173z" fill="#fff"/><path d="M362.702 345.204H226.808c-3.89 0-7.1-3.21-7.1-7.099v-91.548c0-3.89 3.21-7.1 7.1-7.1h135.894c3.89 0 7.1 3.21 7.1 7.1v91.548c0 3.889-3.149 7.099-7.1 7.099zM226.808 241.309a5.243 5.243 0 00-5.248 5.248v91.548a5.243 5.243 0 005.248 5.247h135.894a5.243 5.243 0 005.248-5.247v-91.548a5.243 5.243 0 00-5.248-5.248H226.808zM379.496 204.085H191.677a8.274 8.274 0 01-8.274-8.272V65.373a8.274 8.274 0 018.274-8.271h187.819a8.273 8.273 0 018.273 8.272V195.75c0 4.63-3.705 8.334-8.273 8.334zM191.677 58.83c-3.581 0-6.545 2.902-6.545 6.544V195.75c0 3.581 2.902 6.544 6.545 6.544h187.819c3.581 0 6.544-2.902 6.544-6.544V65.374c0-3.58-2.902-6.544-6.544-6.544H191.677z" fill="#3383FF"/><path fill-rule="evenodd" clip-rule="evenodd" d="M206.803 17.532v80.251h48.221a8308.456 8308.456 0 006.174 22.038l6.174-22.038h48.221V17.532h-108.79z" fill="#5597FF"/><path fill-rule="evenodd" clip-rule="evenodd" d="M299.91 90.19h-93.107c-4.075 0-7.409-3.334-7.409-7.408V18.828c0-4.074 3.334-7.408 7.409-7.408h93.107c4.075 0 7.409 3.334 7.409 7.408v63.954a7.39 7.39 0 01-7.409 7.408z" fill="#fff"/><path d="M299.91 91.116h-93.107c-4.568 0-8.335-3.766-8.335-8.334V18.828c0-4.568 3.767-8.334 8.335-8.334h93.107c4.569 0 8.335 3.766 8.335 8.334v63.954c0 4.568-3.704 8.334-8.335 8.334zm-93.107-78.77a6.48 6.48 0 00-6.482 6.482v63.954a6.48 6.48 0 006.482 6.482h93.107a6.482 6.482 0 006.483-6.482V18.828a6.482 6.482 0 00-6.483-6.482h-93.107z" fill="#3383FF"/><path fill-rule="evenodd" clip-rule="evenodd" d="M362.084 240.383H227.425a6.771 6.771 0 00-6.791 6.791v7.161h148.242v-7.223c0-3.704-3.025-6.729-6.792-6.729z" fill="#3383FF"/><path d="M228.351 250.384a2.964 2.964 0 100-5.928 2.964 2.964 0 000 5.928z" fill="#FFB626"/><path fill-rule="evenodd" clip-rule="evenodd" d="M236.995 250.384a2.964 2.964 0 100-5.925 2.964 2.964 0 000 5.925z" fill="#FC865F"/><path fill-rule="evenodd" clip-rule="evenodd" d="M211.002 71.238c-1.173-1.481-1.173-3.827-.926-5.555.247-1.79.802-2.964 3.519-4.198 2.778-1.235 7.78-2.531 11.237-3.334 3.458-.74 5.248-.926 8.15-2.16 2.84-1.235 6.73-3.519 11.052-4.939 4.26-1.42 8.891-1.913 13.645-2.099 4.692-.185 9.508-.062 14.509 1.235 5.001 1.296 10.188 3.642 13.954 4.815 3.766 1.173 6.05 1.05 7.471 1.605 1.42.556 1.975 1.729 2.161 2.963.185 1.235 0 2.47.123 3.148.123.68.494.68.679 1.482.185.803.247 2.346.124 3.519-.124 1.173-.371 1.975-1.359 2.53-.988.618-2.593.988-4.877 1.359-.741.123-1.482.247-2.532.37a8.346 8.346 0 00.186-1.79c0-4.939-4.014-8.951-8.953-8.951-4.939 0-8.953 4.012-8.953 8.951 0 .988.186 1.975.494 2.84-9.693.432-22.906.864-32.105 1.05-2.285.06-4.322.06-6.175.06.618-1.172.926-2.53.926-3.95 0-4.939-4.013-8.951-8.952-8.951s-8.953 4.012-8.953 8.951c0 1.173.247 2.284.618 3.272-2.532-.432-4.137-1.05-5.063-2.223z" fill="#A987EB"/><path fill-rule="evenodd" clip-rule="evenodd" d="M276.201 56.3l-.679-3.396c1.976.617 3.766 1.296 5.619 1.975l.308 1.297-5.248.123zM273.855 52.41l.741 3.951-14.942.432.68-6.482c.926 0 1.914.062 2.902.124 3.457.247 6.915.987 9.878 1.79l.741.185zM256.197 50.497l-.679 6.42-21.919.617c3.211-1.605 6.483-3.21 9.694-4.383 3.21-1.173 6.421-1.852 9.693-2.284a30.143 30.143 0 013.211-.37z" fill="#DEEBFF"/><path fill-rule="evenodd" clip-rule="evenodd" d="M286.327 64.757c4.939-.37 7.409-.865 9.879-1.359.123.186.247.37.37.741.185.803.247 2.346.124 3.519-.124 1.173-.371 1.975-1.359 2.531-.988.617-2.593.988-4.877 1.358-.741.124-1.482.247-2.532.37a8.346 8.346 0 00.185-1.79c0-2.037-.617-3.889-1.79-5.37zM271.632 65.312a9.006 9.006 0 00-1.42 4.815c0 .988.186 1.976.494 2.84-9.693.432-22.906.864-32.106 1.05-2.284.061-4.321.061-6.174.061.618-1.173.926-2.53.926-3.95 0-1.482-.37-2.84-.987-4.075 4.63-.123 9.755-.247 15.25-.309 7.965-.185 16.67-.247 24.017-.432zM215.447 70.127c0 1.173.247 2.284.618 3.272-2.532-.37-4.137-1.05-5.063-2.16-1.173-1.482-1.173-3.828-.926-5.556v-.062c1.729.37 3.766.494 6.297.555-.555 1.173-.926 2.531-.926 3.951z" fill="#8F50D9"/><path fill-rule="evenodd" clip-rule="evenodd" d="M214.398 61.855c.617-.308 1.728-.617 2.408-.555.741 0 1.049.37.617.802-.494.432-1.79.864-2.593.988-.803.123-1.111-.124-1.173-.37-.062-.31.123-.556.741-.865z" fill="#fff"/><path d="M279.103 77.35a7.223 7.223 0 100-14.445 7.224 7.224 0 100 14.445z" fill="#270D45"/><path fill-rule="evenodd" clip-rule="evenodd" d="M279.103 74.942a4.822 4.822 0 01-4.816-4.815 4.822 4.822 0 014.816-4.815 4.822 4.822 0 014.816 4.815 4.822 4.822 0 01-4.816 4.815z" fill="#DEEBFF"/><path fill-rule="evenodd" clip-rule="evenodd" d="M279.103 71.3a1.107 1.107 0 01-1.111-1.111c0-.617.494-1.111 1.111-1.111.618 0 1.112.494 1.112 1.111 0 .556-.494 1.111-1.112 1.111z" fill="#270D45"/><path d="M229.299 75.233a7.222 7.222 0 000-10.214 7.225 7.225 0 00-10.216 0 7.222 7.222 0 000 10.214 7.225 7.225 0 0010.216 0z" fill="#270D45"/><path fill-rule="evenodd" clip-rule="evenodd" d="M224.215 74.942a4.822 4.822 0 01-4.816-4.815 4.822 4.822 0 014.816-4.815 4.822 4.822 0 014.816 4.815 4.822 4.822 0 01-4.816 4.815z" fill="#DEEBFF"/><path fill-rule="evenodd" clip-rule="evenodd" d="M224.215 71.3a1.107 1.107 0 01-1.112-1.111c0-.617.494-1.111 1.112-1.111.617 0 1.111.494 1.111 1.111 0 .556-.494 1.111-1.111 1.111z" fill="#270D45"/><path fill-rule="evenodd" clip-rule="evenodd" d="M232.55 288.04c-.803-1.049-.803-2.716-.618-3.951.186-1.234.556-2.098 2.532-2.963 1.976-.864 5.495-1.79 7.903-2.345 2.408-.556 3.704-.68 5.742-1.544 2.037-.864 4.754-2.531 7.779-3.519 3.026-.987 6.298-1.358 9.632-1.481 3.334-.124 6.73-.062 10.249.864 3.519.864 7.224 2.593 9.879 3.395 2.655.803 4.26.741 5.31 1.112.987.37 1.42 1.234 1.543 2.098.124.865 0 1.729.062 2.223.062.494.309.494.494 1.049.123.556.185 1.667.123 2.47-.061.802-.308 1.419-.988 1.79-.679.432-1.852.679-3.457.926-.494.061-1.05.185-1.791.247.062-.432.124-.803.124-1.235 0-3.457-2.84-6.297-6.298-6.297-3.457 0-6.297 2.84-6.297 6.297 0 .679.123 1.358.308 2.037-6.853.309-16.176.617-22.659.741-1.605.062-3.087.062-4.384.062.432-.865.679-1.791.679-2.778 0-3.457-2.84-6.297-6.297-6.297-3.458 0-6.298 2.84-6.298 6.297 0 .802.185 1.605.432 2.346-1.914-.309-3.025-.741-3.704-1.544z" fill="#A987EB"/><path fill-rule="evenodd" clip-rule="evenodd" d="M278.548 277.546l-.494-2.408c1.42.432 2.654.926 3.951 1.42l.185.864-3.642.124zM276.942 274.768l.494 2.778-10.558.309.432-4.569c.68 0 1.359.062 2.038.062 2.408.185 4.878.679 6.977 1.235.247.061.432.123.617.185zM264.47 273.41l-.432 4.568-15.435.432c2.284-1.173 4.569-2.284 6.853-3.086 2.285-.803 4.507-1.297 6.853-1.606.68-.185 1.42-.246 2.161-.308z" fill="#DEEBFF"/><path fill-rule="evenodd" clip-rule="evenodd" d="M285.71 283.472c3.457-.247 5.248-.617 6.976-.988.062.124.186.247.247.556.124.556.186 1.667.124 2.469-.062.803-.309 1.42-.988 1.79-.679.433-1.852.68-3.458.926-.493.062-1.049.186-1.79.247.062-.432.123-.802.123-1.234.062-1.42-.432-2.716-1.234-3.766zM275.337 283.842a6.427 6.427 0 00-.988 3.396c0 .679.124 1.358.309 2.037-6.854.309-16.177.617-22.659.741-1.606.061-3.088.061-4.384.061.432-.864.679-1.79.679-2.778a6.478 6.478 0 00-.679-2.901c3.272-.062 6.915-.123 10.743-.247 5.68-.123 11.793-.185 16.979-.309zM235.699 287.238c0 .802.185 1.605.432 2.346-1.791-.309-2.964-.741-3.581-1.544-.803-1.049-.803-2.716-.618-3.951v-.061c1.235.247 2.655.37 4.446.432-.432.864-.679 1.79-.679 2.778z" fill="#A987EB"/><path fill-rule="evenodd" clip-rule="evenodd" d="M234.958 281.435c.432-.185 1.235-.432 1.729-.432.493 0 .74.247.432.555-.371.309-1.297.618-1.853.679-.555.062-.802-.061-.864-.246 0-.186.124-.371.556-.556z" fill="#fff"/><path d="M280.647 292.423a5.124 5.124 0 100-10.248 5.124 5.124 0 000 10.248z" fill="#A987EB"/><path fill-rule="evenodd" clip-rule="evenodd" d="M280.647 290.695c-1.852 0-3.396-1.544-3.396-3.396 0-1.851 1.544-3.395 3.396-3.395 1.852 0 3.396 1.544 3.396 3.395 0 1.852-1.544 3.396-3.396 3.396z" fill="#DEEBFF"/><path fill-rule="evenodd" clip-rule="evenodd" d="M280.647 288.04a.817.817 0 01-.803-.802c0-.432.371-.803.803-.803.432 0 .802.371.802.803-.061.494-.37.802-.802.802z" fill="#A987EB"/><path d="M245.508 290.917a5.125 5.125 0 10-7.247-7.244 5.125 5.125 0 007.247 7.244z" fill="#A987EB"/><path fill-rule="evenodd" clip-rule="evenodd" d="M241.873 290.695c-1.852 0-3.396-1.544-3.396-3.396 0-1.851 1.544-3.395 3.396-3.395 1.852 0 3.396 1.544 3.396 3.395 0 1.852-1.544 3.396-3.396 3.396z" fill="#DEEBFF"/><path fill-rule="evenodd" clip-rule="evenodd" d="M241.873 288.04a.817.817 0 01-.803-.802c0-.432.371-.803.803-.803.432 0 .802.371.802.803 0 .494-.37.802-.802.802z" fill="#A987EB"/><path fill-rule="evenodd" clip-rule="evenodd" d="M216.373 23.458c2.655 0 4.816 2.099 4.816 4.63 0 2.53-2.161 4.63-4.816 4.63-2.654 0-4.815-2.1-4.815-4.63 0-2.531 2.161-4.63 4.815-4.63z" fill="#FFB726"/><path d="M216.373 33.335c-2.963 0-5.371-2.346-5.371-5.185 0-2.84 2.408-5.186 5.371-5.186 2.964 0 5.372 2.346 5.372 5.186s-2.346 5.185-5.372 5.185zm0-9.26c-2.346 0-4.26 1.852-4.26 4.075 0 2.222 1.914 4.074 4.26 4.074 2.347 0 4.261-1.852 4.261-4.074 0-2.223-1.914-4.075-4.261-4.075z" fill="#FC865F"/><path fill-rule="evenodd" clip-rule="evenodd" d="M236.131 262.175c2.655 0 4.816 2.099 4.816 4.63 0 2.531-2.161 4.629-4.816 4.629s-4.816-2.098-4.816-4.629c0-2.531 2.161-4.63 4.816-4.63z" fill="#3383FF"/><path d="M236.131 271.99c-2.964 0-5.372-2.346-5.372-5.185 0-2.84 2.408-5.186 5.372-5.186 2.963 0 5.371 2.346 5.371 5.186 0 2.839-2.346 5.185-5.371 5.185zm0-9.26c-2.346 0-4.26 1.852-4.26 4.075 0 2.222 1.914 4.074 4.26 4.074s4.26-1.852 4.26-4.074c0-2.223-1.914-4.075-4.26-4.075z" fill="#8BB9FF"/><path fill-rule="evenodd" clip-rule="evenodd" d="M238.415 23.211h57.173c.618 0 1.173.556 1.173 1.173s-.555 1.173-1.173 1.173h-57.173c-.617 0-1.173-.556-1.173-1.173 0-.679.556-1.173 1.173-1.173zM238.415 31.977h57.173c.618 0 1.173.556 1.173 1.173s-.555 1.173-1.173 1.173h-57.173c-.617 0-1.173-.556-1.173-1.173 0-.68.556-1.173 1.173-1.173z" fill="#FC865F"/><path d="M579.848 231.309H463.465c-5.063 0-9.138-4.136-9.138-9.136V101.487L412.713 89.82a.872.872 0 01-.618-.865c0-.432.247-.74.618-.864l41.614-11.667V9.136c0-5 4.075-9.136 9.138-9.136h116.383c5.063 0 9.138 4.136 9.138 9.136v212.975c0 5.062-4.075 9.198-9.138 9.198zM416.232 88.955l39.206 10.989a.872.872 0 01.618.864v121.303c0 4.074 3.334 7.408 7.409 7.408h116.383c4.075 0 7.409-3.334 7.409-7.408V9.136c0-4.074-3.334-7.408-7.409-7.408H463.465c-4.075 0-7.409 3.334-7.409 7.408v68.029c0 .37-.247.74-.618.864l-39.206 10.926z" fill="#3383FF"/><path d="M531.134 53.398h-14.448v26.977h14.448V53.398z" fill="#fff"/><path d="M537.308 51.052v-7.346c0-7.655-6.236-13.951-13.954-13.951-7.656 0-13.954 6.235-13.954 13.951v7.346a5.237 5.237 0 00-5.001 5.247v13.643c0 10.433 8.459 18.89 18.893 18.89 10.435 0 18.893-8.457 18.893-18.89V56.238c.124-2.778-2.099-5.062-4.877-5.186zm-10.002 26.236h-8.027l1.544-10.803c-1.359-.864-2.285-2.346-2.285-4.136 0-2.654 2.161-4.877 4.878-4.877 2.655 0 4.878 2.16 4.878 4.877 0 1.79-.988 3.395-2.47 4.198l1.482 10.741zm4.877-26.298h-17.596v-7.284c0-4.877 3.951-8.766 8.767-8.766 4.878 0 8.768 3.951 8.768 8.766v7.284h.061zM485.877 204.147v-2.223a4.268 4.268 0 00-4.26-4.259 4.269 4.269 0 00-4.261 4.259v2.223c-.864.062-1.543.741-1.543 1.605v4.136c0 3.148 2.593 5.741 5.742 5.741s5.742-2.593 5.742-5.741v-4.136c.123-.864-.556-1.543-1.42-1.605zm-3.026 7.963h-2.469l.494-3.272c-.433-.246-.679-.74-.679-1.234 0-.803.679-1.482 1.481-1.482.803 0 1.482.679 1.482 1.482 0 .555-.309 1.049-.741 1.296l.432 3.21zm1.482-7.963h-5.371v-2.223a2.635 2.635 0 012.655-2.654 2.635 2.635 0 012.654 2.654v2.223h.062z" fill="#7427CA"/><path d="M497.793 203.468h54.209a.845.845 0 00.865-.864.845.845 0 00-.865-.865h-54.209a.844.844 0 00-.864.865c0 .493.37.864.864.864zM497.793 207.974h54.209c.494 0 .865-.37.865-.864a.844.844 0 00-.865-.864h-54.209a.843.843 0 00-.864.864c0 .494.37.864.864.864zM497.793 212.542h36.983c.494 0 .865-.37.865-.864a.844.844 0 00-.865-.864h-36.983a.843.843 0 00-.864.864c0 .494.37.864.864.864z" fill="#8BB9FF"/><path d="M232.797 319.77h36.983c.494 0 .865-.37.865-.864a.844.844 0 00-.865-.864h-36.983a.844.844 0 00-.865.864c0 .494.433.864.865.864zM232.797 325.758h36.983c.494 0 .865-.37.865-.864a.844.844 0 00-.865-.864h-36.983a.844.844 0 00-.865.864c0 .494.433.864.865.864z" fill="#DBB7F3"/><path d="M323.743 302.794h31.117c.494 0 .865-.37.865-.864a.844.844 0 00-.865-.864h-31.117a.844.844 0 00-.865.864c0 .494.371.864.865.864zM323.743 308.844h31.117a.845.845 0 00.865-.864.845.845 0 00-.865-.865h-31.117a.845.845 0 00-.865.865c0 .493.371.864.865.864z" fill="#FC865F"/><path d="M232.797 331.808h36.983c.494 0 .865-.37.865-.864a.844.844 0 00-.865-.864h-36.983a.844.844 0 00-.865.864c0 .494.433.864.865.864z" fill="#DBB7F3"/><path d="M478.159 11.482H465.07a.95.95 0 01-.926-.926.95.95 0 01.926-.926h13.089a.95.95 0 01.926.926.95.95 0 01-.926.926zM478.159 15.186H465.07a.95.95 0 01-.926-.926.95.95 0 01.926-.926h13.089a.95.95 0 01.926.926.95.95 0 01-.926.926zM478.159 18.89H465.07a.95.95 0 01-.926-.926.95.95 0 01.926-.926h13.089a.95.95 0 01.926.926.95.95 0 01-.926.926z" fill="#7427CA"/><path d="M312.135 319.462h-10.99v10.988h10.99v-10.988z" fill="#fff"/><path d="M312.135 331.314h-10.99a.95.95 0 01-.926-.926V319.4a.95.95 0 01.926-.926h10.99a.95.95 0 01.926.926v10.988a.909.909 0 01-.926.926zm-10.064-1.852h9.138v-9.074h-9.138v9.074z" fill="#8BB9FF"/><path fill-rule="evenodd" clip-rule="evenodd" d="M303.059 323.906l4.569 4.569c2.223-3.828 4.384-7.593 6.606-11.421-.494-.308-.987-.555-1.481-.864-1.791 3.148-3.643 6.297-5.434 9.445l-3.025-3.025c-.432.432-.864.864-1.235 1.296z" fill="#FC865F"/><path d="M312.135 300.016h-10.99v10.988h10.99v-10.988z" fill="#fff"/><path d="M312.135 311.93h-10.99a.95.95 0 01-.926-.926v-10.988a.95.95 0 01.926-.926h10.99a.95.95 0 01.926.926v10.988a.95.95 0 01-.926.926zm-10.064-1.852h9.138v-9.136h-9.138v9.136z" fill="#8BB9FF"/><path fill-rule="evenodd" clip-rule="evenodd" d="M303.059 304.461l4.569 4.568c2.223-3.827 4.384-7.593 6.606-11.42-.494-.309-.987-.556-1.481-.865-1.791 3.149-3.643 6.297-5.434 9.445l-3.025-3.024c-.432.432-.864.864-1.235 1.296zM233.167 303.905h36.304a1.173 1.173 0 110 2.346h-36.304a1.172 1.172 0 01-1.173-1.173c-.062-.679.494-1.173 1.173-1.173zM285.401 303.905h6.668a1.173 1.173 0 110 2.346h-6.668a1.172 1.172 0 01-1.173-1.173c-.062-.679.494-1.173 1.173-1.173z" fill="#FC865F"/><path fill-rule="evenodd" clip-rule="evenodd" d="M311.332 274.953h42.973a1.37 1.37 0 011.358 1.358 1.37 1.37 0 01-1.358 1.358h-42.973a1.37 1.37 0 01-1.358-1.358c.062-.741.618-1.358 1.358-1.358z" fill="#A987EB"/><path fill-rule="evenodd" clip-rule="evenodd" d="M311.332 266.187h15.066c.74 0 1.358.618 1.358 1.358a1.37 1.37 0 01-1.358 1.358h-15.066a1.37 1.37 0 01-1.358-1.358c.062-.74.618-1.358 1.358-1.358z" fill="#7427CA"/><path fill-rule="evenodd" clip-rule="evenodd" d="M311.332 281.126h42.973a1.37 1.37 0 011.358 1.358 1.37 1.37 0 01-1.358 1.358h-42.973a1.37 1.37 0 01-1.358-1.358c.062-.74.618-1.358 1.358-1.358zM311.332 287.423h42.973a1.37 1.37 0 011.358 1.358 1.37 1.37 0 01-1.358 1.358h-42.973a1.37 1.37 0 01-1.358-1.358c.062-.741.618-1.358 1.358-1.358z" fill="#A987EB"/><path d="M354.799 317.98h-31.983v13.828h31.983V317.98z" fill="#FFD347"/><path fill-rule="evenodd" clip-rule="evenodd" d="M425.864 153.959H412.96l1.234-10.927h10.435l1.235 10.927z" fill="#7427CA"/><path d="M419.443 240.877c24.449 0 44.268-19.816 44.268-44.261 0-24.445-19.819-44.262-44.268-44.262-24.45 0-44.269 19.817-44.269 44.262s19.819 44.261 44.269 44.261z" fill="#8F50D9"/><path d="M419.443 233.469c20.357 0 36.859-16.5 36.859-36.853 0-20.354-16.502-36.854-36.859-36.854-20.358 0-36.86 16.5-36.86 36.854 0 20.353 16.502 36.853 36.86 36.853z" fill="#fff"/><path fill-rule="evenodd" clip-rule="evenodd" d="M442.781 220.938c6.421-6.173 10.434-14.754 10.434-24.322 0-18.582-15.126-33.706-33.711-33.706v33.706l23.277 24.322z" fill="#FFD347"/><path fill-rule="evenodd" clip-rule="evenodd" d="M427.839 145.625h-16.917c-.741 0-1.42-.617-1.42-1.42v-9.198c0-.74.617-1.42 1.42-1.42h16.917c.741 0 1.42.618 1.42 1.42v9.198c0 .803-.617 1.42-1.42 1.42z" fill="#8F50D9"/><path fill-rule="evenodd" clip-rule="evenodd" d="M164.695 84.326H37.569c-2.038 0-3.705 1.481-3.705 3.333v27.409c0 1.852 1.667 3.333 3.705 3.333h127.126c2.038 0 3.705-1.481 3.705-3.333V87.659c0-1.852-1.667-3.334-3.705-3.334z" fill="#fff"/><path d="M164.695 119.266H37.569c-2.532 0-4.569-1.914-4.569-4.198V87.659c0-2.346 2.038-4.198 4.569-4.198h127.126c2.532 0 4.569 1.914 4.569 4.198v27.409c0 2.346-2.037 4.198-4.569 4.198zM37.569 85.19c-1.544 0-2.84 1.111-2.84 2.47v27.408c0 1.358 1.296 2.469 2.84 2.469h127.126c1.544 0 2.841-1.111 2.841-2.469V87.659c0-1.358-1.297-2.47-2.841-2.47H37.569z" fill="#8BB9FF"/><path fill-rule="evenodd" clip-rule="evenodd" d="M70.663 93.091h66.434a1.791 1.791 0 010 3.58H70.663c-.988 0-1.791-.802-1.791-1.79-.062-.987.803-1.79 1.79-1.79zM70.663 101.363h50.566c.988 0 1.791.803 1.791 1.791 0 .987-.803 1.79-1.791 1.79H70.663c-.988 0-1.791-.803-1.791-1.79-.062-.988.803-1.791 1.79-1.791z" fill="#8BB9FF"/><path d="M51.646 102.166a5.803 5.803 0 10-5.804-5.803 5.803 5.803 0 005.804 5.803z" fill="#8BB9FF"/><path fill-rule="evenodd" clip-rule="evenodd" d="M51.646 103.709c-4.384 0-7.965 3.581-7.965 7.964H59.55c0-4.445-3.52-7.964-7.903-7.964z" fill="#8BB9FF"/><path d="M129.811 145.44c10.025 0 18.152-8.126 18.152-18.149 0-10.024-8.127-18.149-18.152-18.149s-18.152 8.125-18.152 18.149c0 10.023 8.127 18.149 18.152 18.149z" fill="#8BB9FF"/><path fill-rule="evenodd" clip-rule="evenodd" d="M119.006 126.55l10.558 10.556c5.125-8.889 10.249-17.717 15.374-26.606-1.173-.679-2.284-1.297-3.457-1.976-4.261 7.346-8.459 14.693-12.719 22.039l-7.039-7.038a117.58 117.58 0 01-2.717 3.025z" fill="#5597FF"/><path fill-rule="evenodd" clip-rule="evenodd" d="M477.048 160.379h92.613c.617 0 1.173.556 1.173 1.173s-.556 1.173-1.173 1.173h-92.613c-.618 0-1.173-.556-1.173-1.173s.555-1.173 1.173-1.173z" fill="#7427CA"/><path fill-rule="evenodd" clip-rule="evenodd" d="M477.048 169.145h92.613c.617 0 1.173.556 1.173 1.173s-.556 1.173-1.173 1.173h-92.613c-.618 0-1.173-.556-1.173-1.173s.555-1.173 1.173-1.173zM477.048 177.911h92.613c.617 0 1.173.555 1.173 1.173 0 .617-.556 1.173-1.173 1.173h-92.613c-.618 0-1.173-.556-1.173-1.173 0-.618.555-1.173 1.173-1.173z" fill="#DBB7F3"/><path fill-rule="evenodd" clip-rule="evenodd" d="M411.293 256.434h100.948a2.766 2.766 0 012.778 2.778v17.778a2.766 2.766 0 01-2.778 2.778H411.293a2.766 2.766 0 01-2.779-2.778v-17.778c0-1.482 1.235-2.778 2.779-2.778z" fill="#fff"/><path d="M512.241 280.632H411.293a3.61 3.61 0 01-3.643-3.642v-17.778a3.61 3.61 0 013.643-3.643h100.948a3.61 3.61 0 013.642 3.643v17.778c0 1.976-1.667 3.642-3.642 3.642zM411.293 257.36c-1.05 0-1.914.864-1.914 1.913v17.779c0 1.049.864 1.914 1.914 1.914h100.948a1.924 1.924 0 001.914-1.914v-17.779a1.924 1.924 0 00-1.914-1.913H411.293z" fill="#8BB9FF"/><path d="M420.801 274.089c-3.334 0-6.051-2.593-6.051-5.803s2.717-5.803 6.051-5.803 6.051 2.593 6.051 5.803-2.717 5.803-6.051 5.803zm0-10.495c-2.717 0-4.878 2.099-4.878 4.692s2.161 4.692 4.878 4.692c2.716 0 4.877-2.099 4.877-4.692s-2.222-4.692-4.877-4.692z" fill="#8BB9FF"/><path fill-rule="evenodd" clip-rule="evenodd" d="M432.902 263.903h71.744c.741 0 1.359.618 1.359 1.358a1.37 1.37 0 01-1.359 1.358h-71.744a1.37 1.37 0 01-1.358-1.358c0-.802.617-1.358 1.358-1.358zM432.902 270.076h61.186c.741 0 1.359.618 1.359 1.358 0 .741-.618 1.359-1.359 1.359h-61.186a1.37 1.37 0 01-1.358-1.359c0-.74.617-1.358 1.358-1.358z" fill="#8BB9FF"/><path fill-rule="evenodd" clip-rule="evenodd" d="M500.139 295.51H600.47a2.766 2.766 0 012.778 2.778v17.778a2.766 2.766 0 01-2.778 2.778H500.139a2.766 2.766 0 01-2.778-2.778v-17.778a2.766 2.766 0 012.778-2.778z" fill="#fff"/><path d="M600.47 319.647H500.139a3.61 3.61 0 01-3.643-3.642v-17.779a3.61 3.61 0 013.643-3.642H600.47a3.61 3.61 0 013.643 3.642v17.779a3.61 3.61 0 01-3.643 3.642zm-100.331-23.273a1.924 1.924 0 00-1.914 1.914v17.778c0 1.05.865 1.914 1.914 1.914H600.47a1.924 1.924 0 001.914-1.914v-17.778c0-1.05-.865-1.914-1.914-1.914H500.139z" fill="#8BB9FF"/><path fill-rule="evenodd" clip-rule="evenodd" d="M509.647 302.053c3.026 0 5.434 2.346 5.434 5.248 0 2.901-2.47 5.247-5.434 5.247-2.963 0-5.433-2.346-5.433-5.247 0-2.902 2.408-5.248 5.433-5.248z" fill="#3383FF"/><path d="M509.647 313.103c-3.334 0-6.05-2.592-6.05-5.802 0-3.21 2.716-5.803 6.05-5.803 3.334 0 6.051 2.593 6.051 5.803s-2.717 5.802-6.051 5.802zm0-10.494c-2.716 0-4.877 2.099-4.877 4.692 0 2.592 2.161 4.691 4.877 4.691 2.717 0 4.878-2.099 4.878-4.691 0-2.593-2.223-4.692-4.878-4.692z" fill="#8BB9FF"/><path fill-rule="evenodd" clip-rule="evenodd" d="M521.749 302.918h71.127c.74 0 1.358.617 1.358 1.358 0 .74-.618 1.358-1.358 1.358h-71.127a1.37 1.37 0 01-1.358-1.358c.061-.741.617-1.358 1.358-1.358zM521.749 309.091h60.569a1.37 1.37 0 011.358 1.358 1.37 1.37 0 01-1.358 1.358h-60.569a1.37 1.37 0 01-1.358-1.358c.061-.741.617-1.358 1.358-1.358z" fill="#8BB9FF"/><path fill-rule="evenodd" clip-rule="evenodd" d="M567.376 144.452h-87.982c-3.952 0-7.1-3.21-7.1-7.099v-24.384c0-3.951 3.21-7.099 7.1-7.099h87.982c3.952 0 7.1 3.21 7.1 7.099v24.384c0 3.889-3.21 7.099-7.1 7.099z" fill="#FC865F"/><path fill-rule="evenodd" clip-rule="evenodd" d="M521.872 120.994c-1.667-4.259-5.803-7.284-10.619-7.284-6.298 0-11.422 5.124-11.422 11.42 0 6.297 5.124 11.421 11.422 11.421 4.816 0 8.952-3.025 10.619-7.285h5.619c.185 0 .37-.061.556-.185l2.593-1.728c.37-.247.802-.247 1.111 0l2.285 1.543c.37.247.802.247 1.111 0l2.284-1.543a1.021 1.021 0 011.173 0l1.976 1.419c.432.309.988.247 1.297-.123l7.594-7.717h-27.599v.062zm-16.732 7.47a3.32 3.32 0 01-3.334-3.334 3.32 3.32 0 013.334-3.333 3.319 3.319 0 013.334 3.333 3.32 3.32 0 01-3.334 3.334z" fill="#fff"/><path d="M216.867 294.09c-.37 0-.679-.185-.802-.556l-5.434-12.902-5.433 12.902a.913.913 0 01-1.173.494.913.913 0 01-.494-1.173l6.236-14.815a.88.88 0 01.803-.556c.37 0 .679.185.802.556l6.236 14.815c.185.432 0 .988-.494 1.173 0 0-.123.062-.247.062z" fill="#5597FF"/><path d="M214.398 288.164h-7.533a.844.844 0 01-.864-.865c0-.493.37-.864.864-.864h7.533c.494 0 .864.371.864.864 0 .494-.432.865-.864.865zM632.946 74.572h-5.804a.844.844 0 01-.864-.864V66.3c0-.494.37-.864.864-.864h5.804c2.408 0 4.384 1.975 4.384 4.383v.37c.061 2.408-1.914 4.383-4.384 4.383zm-4.939-1.79h4.939a2.635 2.635 0 002.655-2.655v-.37a2.635 2.635 0 00-2.655-2.655h-4.939v5.68z" fill="#5597FF"/><path d="M633.749 81.98h-6.607a.844.844 0 01-.864-.865v-7.407c0-.494.37-.865.864-.865h6.607a4.559 4.559 0 014.569 4.569 4.559 4.559 0 01-4.569 4.568zm-5.742-1.729h5.742c1.543 0 2.84-1.296 2.84-2.84 0-1.543-1.297-2.84-2.84-2.84h-5.742v5.68z" fill="#5597FF"/><path d="M627.142 81.98a.844.844 0 01-.864-.865V66.3c0-.494.37-.864.864-.864s.865.37.865.864v14.816a.844.844 0 01-.865.864z" fill="#5597FF"/></g><path fill-rule="evenodd" clip-rule="evenodd" d="M83.412 464.77c-.33 2.777-1.055 9.258.066 12.168 1.121 3.042 2.308 1.785 4.814 2.711 2.505.926 5.473 1.654 6.725 2.513 1.187.86.66 1.786-2.176 2.315-2.835.595-7.912.794-11.407 1.124-3.495.331-5.341.794-6.858.661-1.45-.132-2.505-.859-2.967-1.851-.461-.926-.527-2.183-.198-3.241.396-1.455 1.121-3.108 1.649-4.629.791-2.315.791-5.224.791-7.341 0-2.446 0-4.298-.132-5.753s3.231-.926 6.462-1.257c2.506-.264 3.627-.132 3.231 2.58z" fill="#FDB092"/><path fill-rule="evenodd" clip-rule="evenodd" d="M73.72 472.838h9.165c-.066-2.91.33-6.283.527-8.068.33-2.712-.725-2.844-3.23-2.58-3.232.331-6.595-.198-6.463 1.257.132 1.455.132 3.24.132 5.753 0 1.058 0 2.381-.132 3.638z" fill="#F38A7C"/><path fill-rule="evenodd" clip-rule="evenodd" d="M103.919 489.569c-4.088.595-12.067.595-16.22.397-4.155-.198-4.419-.661-4.814-.794-.396-.198-.791-.066-1.121.199-.33.264-.462.661-2.176.859-1.715.199-5.011.199-6.726-.462-1.714-.662-1.912-2.051-1.978-3.505-.066-1.389.066-2.844.132-3.638.132-.859.198-1.124.33-1.389 1.714.067 3.494.199 5.143 0 1.648-.198 3.165-.661 4.286-1.322 1.12-.661 1.846-1.587 2.242-2.249.395-.661.527-1.058.725-1.918.198-.859.33-2.116.462-3.438.857-.331 1.78-.596 2.373-.529.66.066 1.121.462 1.517.859-.33.529-.594 1.058-1.055 1.852-.462.794-1.055 1.852-1.45 2.447-.396.595-.528.727-.726.86.461.066.923.132 3.165.595 2.242.463 6.198 1.322 9.363 2.248 3.165.926 5.539 1.918 7.187 2.91 1.715.992 2.704 2.05 3.1 3.174.593 1.059.329 2.249-3.759 2.844z" fill="#7427CA"/><path fill-rule="evenodd" clip-rule="evenodd" d="M86.511 478.459c-1.055.926-2.637 2.844-3.23 3.968-.594 1.124-.133 1.455.46 1.323.594-.199 1.452-.86 2.375-1.918.923-1.058 2.044-2.513 2.44-3.241.395-.727.197-.793-.132-.86-.33-.132-.858-.198-1.913.728zM90.863 479.385c-.923.793-2.308 2.447-2.835 3.439-.528.992-.132 1.256.395 1.124.528-.132 1.253-.728 2.045-1.653.857-.926 1.78-2.183 2.176-2.844.395-.661.197-.661-.132-.728-.33 0-.726-.132-1.649.662zM95.347 480.311c-.725.595-1.846 1.917-2.242 2.711-.395.794-.132.992.33.86.395-.132.989-.595 1.582-1.323.66-.727 1.385-1.719 1.649-2.182.264-.529.132-.529-.132-.595-.132-.067-.462-.133-1.187.529z" fill="#fff"/><path fill-rule="evenodd" clip-rule="evenodd" d="M100.952 487.122c2.901-.397 4.55-.992 5.341-1.389.725-.396.527-.661.264-.925.659.595 1.055 1.19 1.252 1.851.396 1.125.198 2.249-3.89 2.844-4.088.595-12.067.595-16.22.397-4.155-.199-4.419-.662-4.814-.794-.396-.198-.791-.066-1.121.199-.33.264-.462.661-2.176.859-1.715.199-5.011.199-6.726-.463-1.714-.661-1.912-2.05-1.978-3.505v-1.521c.066 0 .066-.066.132-.066.198-.066.593.199.857.662.264.462.396 1.058.923 1.521.528.463 1.385.727 2.44.793 1.055.066 2.374-.066 3.429-.264 1.12-.199 2.044-.529 2.571-.662.528-.132.726-.066 2.11.199 1.385.264 4.022.727 7.32.793 3.362.265 7.45-.066 10.286-.529z" fill="#5D19AB"/><path fill-rule="evenodd" clip-rule="evenodd" d="M34.882 455.908c-.726 3.637-3.627 13.755-3.363 16.93.263 3.108 1.714 3.901 3.824 5.489 2.11 1.587 4.748 3.174 5.67 4.364.924 1.191.133 1.918-2.769 1.588-2.835-.265-7.78-1.588-11.21-2.249-3.428-.727-5.34-.794-6.725-1.389-1.385-.529-2.11-1.587-2.308-2.579-.132-1.058.264-2.116.726-3.174.461-1.058 2.703-4.167 3.033-5.688.527-2.579 1.252-8.2 1.78-10.779.462-2.116 1.978-1.72 3.297-2.315 2.308-1.058 8.506-2.513 8.045-.198z" fill="#FDB092"/><path fill-rule="evenodd" clip-rule="evenodd" d="M34.816 456.305l.131-.794c-.263-1.786-5.868-.397-7.978.529-1.319.595-2.835.198-3.297 2.315-.462 2.182-1.055 6.613-1.583 9.457.792.463 2.374 1.256 4.484 1.719 1.912.397 3.89.529 5.143.595.594-4.166 2.44-10.647 3.1-13.821z" fill="#F38A7C"/><path fill-rule="evenodd" clip-rule="evenodd" d="M44.97 493.802c-4.088-.662-9.89-2.976-13.65-5.225-3.56-2.116-3.56-2.844-3.89-3.108-.33-.265-.725-.331-1.12-.132-.396.132-.66.859-2.374.529-1.715-.331-4.814-1.257-6.264-2.447-1.451-1.191-1.253-2.579-.924-3.902a22.46 22.46 0 011.187-3.439c.33-.793.99-1.785.99-1.785s2.043 1.587 4.022 2.446c1.516.662 3.099.86 4.352.463 1.78-.595 1.648-2.38 1.516-3.108-.132-.86-.396-1.785.264-2.314.923-.794 2.505-.596 4.022-.463 2.176.198 1.649 1.322 1.055 2.314-.461.794-1.187 1.786-1.187 1.786s1.913 1.587 4.088 3.306c2.77 2.117 6.792 5.159 9.364 7.341 2.242 1.918 3.956 4.166 4.022 5.357.198 1.19-.725 3.174-5.473 2.381z" fill="#7427CA"/><path fill-rule="evenodd" clip-rule="evenodd" d="M37.849 479.517c-1.187.265-3.231 1.058-4.154 1.653-.923.596-.726 1.058-.198 1.191.527.132 1.45-.066 2.637-.463s2.572-1.058 3.231-1.389c.66-.397.462-.529.264-.727-.33-.265-.66-.529-1.78-.265zM41.343 482.493c-.923.198-2.505.794-3.23 1.256-.726.463-.594.794-.132.926.395.133 1.12 0 2.044-.33.923-.331 2.044-.794 2.505-1.125.528-.33.396-.396.198-.595-.264-.132-.461-.33-1.385-.132zM34.882 476.607c-1.385.265-3.759 1.058-4.814 1.72-1.055.661-.857 1.19-.264 1.322.594.199 1.649 0 3.033-.397 1.385-.396 3.033-1.058 3.759-1.521.725-.396.593-.595.33-.859-.33-.199-.66-.529-2.044-.265z" fill="#fff"/><path fill-rule="evenodd" clip-rule="evenodd" d="M27.496 485.535c.33.265.33.992 3.89 3.108 3.76 2.249 9.562 4.563 13.65 5.225 4.748.727 5.605-1.191 5.605-2.381 0-.661-.594-1.521-.594-1.521.132.331.066 1.389-1.318 1.918-.792.264-3.034.33-6.265-.662-2.769-.859-4.879-1.785-8.44-3.306-3.099-1.323-4.88-2.778-6.132-3.439-.66-.331-1.648 0-3.1-.463-1.45-.397-3.692-1.124-4.22-1.256-1.516-.596-1.977-.86-2.57-1.588-.396-.463-.594-1.058-.726-1.719-.066-.529 0-1.19 0-1.19s-.198.661-.396 1.19c0 .066-.066.132-.066.198-.33 1.323-.593 2.712.924 3.902 1.45 1.191 4.55 2.116 6.264 2.447 1.714.331 1.978-.397 2.373-.529.396-.265.858-.265 1.121.066z" fill="#5D19AB"/><path fill-rule="evenodd" clip-rule="evenodd" d="M81.566 325.429c2.835 11.838 11.473 59.056 10.484 77.308-.989 18.187-5.473 66.199-5.473 66.199s-15.034.463-15.759 0c-.725-.463.462-24.734 0-42.788-.462-18.054-1.253-34.388-5.934-49.996-4.682-15.607-15.166-51.715-15.166-51.715l31.848.992z" fill="#5952BA"/><path fill-rule="evenodd" clip-rule="evenodd" d="M18.793 462.389l17.275 3.835s5.803-36.372 9.364-52.905c3.626-16.533 5.934-40.804 7.385-59.652 1.45-18.781 2.967-31.412 2.967-31.412l-33.233 4.232s1.187 44.441 1.45 59.122c.198 14.682-.659 27.511-1.648 40.804-.923 11.507-3.56 35.976-3.56 35.976z" fill="#3384FF"/><path opacity=".17" fill-rule="evenodd" clip-rule="evenodd" d="M55.784 322.188l-33.233 4.233s.33 12.499.725 26.387l30.068-5.291c1.253-15.409 2.44-25.329 2.44-25.329z" fill="#270D45"/><path opacity=".17" fill-rule="evenodd" clip-rule="evenodd" d="M78.994 339.383L74.51 325.23l-24.726-.793s3.033 10.449 6.593 22.551l19.848-3.505c1.846-.331 3.099-2.182 2.77-4.1z" fill="#270D45"/><path fill-rule="evenodd" clip-rule="evenodd" d="M150.274 220.808c1.451-.662 4.022-1.191 5.671-.926 1.648.264 2.242 1.785 1.582 3.703-.659 1.852-1.582 5.621-3.626 6.68-2.045 1.058-4.089.661-4.418-.992-.33-1.786.791-8.465.791-8.465z" fill="#F38A7C"/><path fill-rule="evenodd" clip-rule="evenodd" d="M155.747 222.593c1.055-.529 2.242-.198 2.967.331.725.529 1.055 1.852 0 4.298-1.055 2.447-2.769 3.704-4.022 3.572-1.319-.199-.33-3.439.264-5.556.527-2.182.791-2.645.791-2.645z" fill="#F38A7C"/><path fill-rule="evenodd" clip-rule="evenodd" d="M137.416 236.415c2.242-1.72 6.594-7.209 9.363-11.441 2.77-4.233 5.275-8.928 6.792-12.168.395-.926 1.45-2.91 1.714-3.439.528-.992 1.517-1.257 1.912-.728.396.463.264 1.455-.131 3.042-.33 1.588-1.121 4.101-1.847 5.886-.923 2.249-1.187 2.778-1.648 3.902 0 0 .725 1.653 0 3.571-.594 1.587-1.715 2.844-1.649 4.034.066 1.323.858 1.191 3.099-.264 1.649-1.125 3.297-2.58 5.144-4.034.725-.596 1.912-.662 2.373-.265.66.529.594 1.257.198 1.786-.857 1.124-2.242 2.38-4.55 5.29-2.373 3.042-2.835 4.431-5.604 6.018-1.517.86-3.033.926-4.484 1.654-.791.396-2.374 2.05-3.693 3.24-3.099 2.778-4.154 3.902-4.154 3.902l-2.835-9.986z" fill="#FDB092"/><path fill-rule="evenodd" clip-rule="evenodd" d="M65.609 218.361c4.22 1.19 7.847 3.571 12.726 8.928 4.945 5.356 26.639 31.611 26.639 31.611s10.88-6.415 17.869-11.177c6.99-4.761 14.573-12.763 14.573-12.763l8.308 8.399s-15.957 18.054-22.881 25.725c-6.923 7.672-11.671 12.036-18.133 12.036s-22.287-16.136-28.023-22.749c-5.737-6.613-9.825-13.557-14.177-19.774-4.352-6.216 3.099-20.236 3.099-20.236z" fill="#DA9A2B"/><path fill-rule="evenodd" clip-rule="evenodd" d="M21.628 224.974c2.835-2.711 10.484-6.481 16.946-8.862 7.451-2.777 10.946-3.174 14.836-3.108 4.484.132 9.891 2.579 13.65 4.828 6.198 3.703 12.396 8.465 12.594 15.144.33 10.317-2.11 28.04-3.297 41.597-1.121 12.962-.264 20.898 1.714 32.339 1.978 11.441 3.56 18.583 3.56 18.583s-9.824 2.711-21.561 4.365c-14.507 2.05-37.453 2.38-37.453 2.38s-.857-9.853-1.055-18.384c-.198-9.722.527-20.832.593-30.686.132-22.418-2.835-35.314-3.56-45.499-.594-7.406.725-10.449 3.033-12.697z" fill="#FFD447"/><path opacity=".17" fill-rule="evenodd" clip-rule="evenodd" d="M67.125 301.886l-45.695 8.663v3.241c.198 8.531 1.055 18.384 1.055 18.384s22.947-.33 37.453-2.38a233.42 233.42 0 0015.1-2.778l-7.913-25.13z" fill="#270D45"/><path fill-rule="evenodd" clip-rule="evenodd" d="M73.456 339.846l-52.158 13.623c-1.846.463-3.758-.595-4.22-2.513l-8.77-33.728c-.461-1.851.594-3.769 2.506-4.232l52.157-13.623c1.846-.463 3.759.595 4.22 2.513l8.77 33.727c.396 1.918-.66 3.77-2.505 4.233z" fill="#7427CA"/><path opacity=".17" fill-rule="evenodd" clip-rule="evenodd" d="M33.299 237.275c-.462 11.308-4.682 29.164-4.616 39.679.132 10.581 12.595 34.653 12.595 34.653l-11.474-3.703s-9.165-12.631-11.341-26.585 14.836-44.044 14.836-44.044z" fill="#270D45"/><path fill-rule="evenodd" clip-rule="evenodd" d="M72.07 340.242l-52.157 13.624c-1.846.463-3.758-.595-4.22-2.513l-8.77-33.728c-.461-1.851.594-3.769 2.506-4.232l52.158-13.623c1.846-.463 3.758.595 4.22 2.513l8.77 33.727c.395 1.852-.66 3.77-2.506 4.232z" fill="#A987EB"/><path fill-rule="evenodd" clip-rule="evenodd" d="M32.178 324.437c2.77 3.306 6.264 9.721 7.715 13.094 1.714 3.902 3.23 7.01 4.418 8.796 1.055 1.587 2.373 2.182 3.494 1.719.396-.132 1.253-.595 1.253-.595s.923.529 2.044.132c1.451-.463 1.913-1.256 1.913-1.256s1.12.198 2.242-.133c1.055-.33 1.648-.727 1.648-.727 1.582.661 3.363-.132 3.956-.529 1.517-.992 1.187-2.116 1.187-2.116s-1.055.33-1.846.463c-.264.066-.857.066-1.517-.331-1.187-.794-4.22-4.233-5.934-6.613-.923-1.257-1.187-2.249-.725-2.513.593-.331 1.318.463 2.373 1.322 1.78 1.389 2.638 2.05 2.968 2.249 1.318.86 2.44.926 2.769.132.33-.727-.132-1.389-1.912-3.373-1.055-1.124-3.231-3.637-5.341-5.092-2.11-1.455-5.21-2.182-7.385-3.373-2.11-1.19-4.22-2.909-6.528-6.15-2.308-3.24-6.792 4.894-6.792 4.894z" fill="#FDB092"/><path fill-rule="evenodd" clip-rule="evenodd" d="M1.385 270.341c3.363-14.153 11.473-33.529 17.012-41.796 1.78-2.645 3.956-3.637 6.066-3.637 3.495 0 6.726 2.579 7.913 5.489 1.846 4.497.857 9.192-.791 15.342-1.649 6.283-6.199 18.848-7.847 25.792-.66 2.711-.99 4.828-1.055 6.679-.132 4.63 1.319 7.804 4.813 14.682 3.693 7.142 14.573 27.775 14.573 27.775l-10.023 5.82s-8.836-7.605-15.627-17.128C2.967 290.313-.461 283.501.066 278.607c.462-4.96.593-5.224 1.319-8.266z" fill="#FFB726"/><path fill-rule="evenodd" clip-rule="evenodd" d="M26.046 322.651c.198-.198 13.056-9.523 13.056-9.523l5.209 8.664-11.276 7.803-6.99-6.944z" fill="#FFD447"/><path fill-rule="evenodd" clip-rule="evenodd" d="M137.416 234.894s-2.835 2.976-6.66 6.415l8.638 9.126c3.627-4.1 6.264-7.076 6.264-7.076l-8.242-8.465z" fill="#FFB726"/><path fill-rule="evenodd" clip-rule="evenodd" d="M68.906 183.972c-.264 2.91-.198 7.539.263 11.573.462 4.034 1.385 7.539.792 9.986-.594 2.447-2.704 3.902-4.352 4.365-1.649.463-2.77-.132-3.956-.728-.792 1.918-.396 5.291.461 8.201.198.727-1.319 3.505-2.176 5.621-.725 1.786-.857 2.976-.857 2.976s-.462-2.249-4.748-3.439c-2.77-.727-5.67-2.182-8.967-4.232-.792-.529-1.583-3.042-1.187-3.77 1.912-3.505 2.901-7.605 2.703-11.904-.33-5.224-1.978-13.094-.66-17.922 1.32-4.827 5.738-6.679 10.287-7.142 4.55-.463 9.232.397 11.276 1.389 1.978.992 1.385 2.116 1.12 5.026z" fill="#FDB092"/><path fill-rule="evenodd" clip-rule="evenodd" d="M68.972 188.204c.33.529.66 2.315 1.319 4.167.659 1.851 1.582 3.703 1.846 4.761.33.992 0 1.191-.396 1.323a6.837 6.837 0 01-1.45.331c-.594.066-1.32.066-1.715-.397-.396-.463-.527-1.455-.593-3.108-.066-1.654-.066-3.968.132-5.423.131-1.521.527-2.183.857-1.654z" fill="#EB6767"/><path fill-rule="evenodd" clip-rule="evenodd" d="M68.576 185.89c-.791.132-2.308 0-3.56.066-1.254.066-2.309.331-2.902.397s-.725-.133-.527-.463c.197-.331.725-.794 1.516-1.191.857-.396 1.978-.727 2.967-.925 1.055-.133 1.979-.133 2.374 0 .396.066.33.198.396.264s.264.066.461.198c.132.133.198.397.198.728 0 .331-.132.794-.923.926z" fill="#5D19AB"/><path fill-rule="evenodd" clip-rule="evenodd" d="M56.641 183.244c1.978-.727 3.956-1.388 6.198-1.587 2.242-.198 4.88.199 7.715-.198s5.935-1.521 7.715-3.836c1.78-2.381 2.242-5.952 1.385-8.266-.858-2.381-2.968-3.439-5.473-3.505-2.506-.066-5.275.992-7.847 1.984-2.572.926-4.813 1.719-7.319 1.851-2.44.133-5.143-.463-7.187-.529-2.11 0-3.627.529-4.418 1.918-.791 1.389-.857 3.637-1.517 5.026-.66 1.389-1.978 1.984-2.967 2.91-.99.86-1.714 2.05-1.385 5.291.33 3.174 1.78 8.398 2.836 11.44 1.055 3.043 1.714 3.968 2.44 4.828 1.252-1.455 2.505-2.844 3.164-3.703.66-.794.726-1.058.792-1.257-.726-.529-1.451-.992-1.847-1.918-.461-.925-.593-2.248-.263-3.174.33-.926 1.187-1.455 2.11-1.521.857 0 1.78.529 2.703.992.066.926.198 1.918.33 3.042.132 1.124.264 2.513.395 3.836l-1.78-.397c.132 2.447.264 4.894.528 6.679.263 1.786.659 2.976 2.308 4.034 1.648 1.058 4.483 2.117 6.66 2.778 2.175.661 3.626.992 5.076.992 1.451 0 2.836-.265 3.759-.661.923-.397 1.385-.926 1.121-2.91s-1.187-5.423-2.11-8.928c-2.176-.397-4.352-.794-6.396-1.257-1.978-.529-3.825-1.124-5.011-1.917-1.187-.728-1.649-1.588-1.847-3.638-.132-1.918 0-5.158.132-8.399z" fill="#7427CA"/><path d="M75.632 176.036a.691.691 0 01-.594-.331c-.198-.33-.066-.793.264-.925 1.055-.596 2.044-1.191 2.703-2.183.66-1.058.99-2.645.791-3.902-.131-1.19-.79-2.05-1.978-2.579-1.45-.661-3.56-.793-5.407-.397-1.45.265-2.967.926-4.418 1.588l-1.978.793c-2.11.794-4.088 1.257-5.934 1.257-1.78 0-3.363-.331-4.88-.728-.395-.066-.593-.463-.527-.86.066-.396.462-.595.857-.529 1.517.331 2.967.728 4.55.662 1.648 0 3.429-.397 5.407-1.191a56.57 56.57 0 011.912-.793c1.517-.662 3.1-1.323 4.682-1.654 2.176-.462 4.55-.264 6.264.53 1.648.727 2.572 1.983 2.77 3.637.197 1.587-.198 3.505-.99 4.827-.857 1.323-2.044 2.051-3.23 2.712 0 .066-.133.066-.264.066zM46.553 198.587a.692.692 0 01-.594-.33c-1.648-2.712-3.363-5.489-4.484-8.201-1.055-2.447-1.714-5.224-1.912-7.407-.132-2.116.33-3.372 1.649-4.298 1.252-.86 3.23-1.389 5.209-1.918.395-.132.791.132.857.463.066.33-.132.793-.462.86-1.846.529-3.758 1.058-4.813 1.719-.791.529-1.187 1.19-1.055 3.042.132 2.05.791 4.629 1.78 7.01 1.121 2.645 2.77 5.357 4.352 8.002.198.331.066.794-.264.992-.066.066-.132.066-.263.066z" fill="#7427CA"/><path fill-rule="evenodd" clip-rule="evenodd" d="M61.389 209.962c-2.11-.661-4.682-1.587-6.199-2.645-1.648-1.058-2.044-2.249-2.307-4.034-.264-1.786-.396-4.233-.528-6.68l-1.582-.926c-.066.199-.132.463-.792 1.257-.659.793-1.912 2.248-3.165 3.703.066.662.132 1.257.132 1.852 0 .331 0 .661.066.926 1.121 1.653 2.374 3.174 3.956 4.431 2.572 2.116 6.067 3.637 10.287 4.695-.066-.926 0-1.852.132-2.579zM67.521 183.311c-3.23-.265-5.934-.067-8.044.33-1.055.199-1.979.529-2.902.86 0-.397 0-.794.066-1.257 1.978-.727 3.956-1.388 6.198-1.587 1.913-.132 4.089.133 6.462-.066a54.118 54.118 0 00-.197 1.852c-.528-.066-1.055-.066-1.583-.132z" fill="#F48B7C"/><path fill-rule="evenodd" clip-rule="evenodd" d="M54.267 230.265c.066-.199 1.121-2.447 1.847-3.505.725-1.059 1.055-1.72 1.78-1.918.725-.199 1.253 1.124 1.253 1.124s.132-1.058-1.583-2.249c-2.242-1.587-6.593-3.505-9.56-6.613-2.902-3.108-2.506-4.96-2.177-5.952.33-.992.462-1.521.462-1.521s-1.45.662-2.374 2.183c-1.187 1.984-.923 3.703.264 6.15 1.187 2.447 4.747 6.349 6.594 8.134 2.373 2.315 3.494 4.167 3.494 4.167z" fill="#fff"/><path fill-rule="evenodd" clip-rule="evenodd" d="M61.19 212.872c1.254.859 2.045 1.653 2.375 4.497.33 2.843.461 5.423.33 7.473a153.83 153.83 0 00-.198 3.901s-1.055-2.05-1.847-3.042c-.79-.992-1.318-2.182-1.978-1.455-.593.728-.791 1.72-.791 1.72s-.132-.926.132-1.984c.198-1.058 1.12-2.447 1.846-4.233.791-1.917.725-3.108.462-4.761-.132-1.124-.33-2.116-.33-2.116z" fill="#fff"/><defs><clipPath id="clip0"><path fill="#fff" transform="translate(33)" d="M0 0h621v457H0z"/></clipPath></defs></svg>